<?xml version="1.0" encoding="UTF-8" standalone="no"?>
<!-- Created with Inkscape (http://www.inkscape.org/) -->

<svg
   xmlns:dc="http://purl.org/dc/elements/1.1/"
   xmlns:cc="http://creativecommons.org/ns#"
   xmlns:rdf="http://www.w3.org/1999/02/22-rdf-syntax-ns#"
   xmlns:svg="http://www.w3.org/2000/svg"
   xmlns="http://www.w3.org/2000/svg"
   xmlns:sodipodi="http://sodipodi.sourceforge.net/DTD/sodipodi-0.dtd"
   xmlns:inkscape="http://www.inkscape.org/namespaces/inkscape"
   version="1.1"
   id="svg10"
   width="500"
   height="500"
   viewBox="0 0 500 500"
   sodipodi:docname="logo.svg"
   inkscape:version="0.92.4 (5da689c313, 2019-01-14)">
  <metadata
     id="metadata16">
    <rdf:RDF>
      <cc:Work
         rdf:about="">
        <dc:format>image/svg+xml</dc:format>
        <dc:type
           rdf:resource="http://purl.org/dc/dcmitype/StillImage" />
        <dc:title></dc:title>
      </cc:Work>
    </rdf:RDF>
  </metadata>
  <defs
     id="defs14" />
  <sodipodi:namedview
     pagecolor="#ffffff"
     bordercolor="#010101"
     borderopacity="1"
     objecttolerance="10"
     gridtolerance="10"
     guidetolerance="10"
     inkscape:pageopacity="0"
     inkscape:pageshadow="2"
     inkscape:window-width="1920"
     inkscape:window-height="1001"
     id="namedview12"
     showgrid="false"
     inkscape:zoom="1.616"
     inkscape:cx="250"
     inkscape:cy="250"
     inkscape:window-x="1591"
     inkscape:window-y="522"
     inkscape:window-maximized="1"
     inkscape:current-layer="svg10" />
  <g
     id="g3740"
     transform="translate(-11.138615,-24.752476)">
    <path
       style="fill:#cfcfcf"
       d="m 179.86881,375.1607 c -1.2375,-0.59683 -2.25,-1.49293 -2.25,-1.99134 0,-0.49841 -0.35989,-0.68378 -0.79976,-0.41192 -1.44208,0.89125 -15.9354,-7.77341 -15.6836,-9.37625 0.38991,-2.48198 12.73108,-25 13.70144,-25 0.49497,0 0.62184,-0.45 0.28192,-1 -0.33992,-0.55 -0.0665,-1 0.60765,-1 0.67413,0 0.93436,-0.29132 0.5783,-0.64738 -0.75524,-0.75524 5.91679,-13.47897 7.6443,-14.57789 0.64336,-0.40926 0.78929,-0.751 0.32429,-0.75942 -1.01088,-0.0183 5.13019,-11.19527 6.73064,-12.25 0.61315,-0.40408 0.73602,-0.74158 0.27305,-0.75 -1.02773,-0.0187 6.10956,-13.22015 7.70418,-14.25 0.62567,-0.40408 0.76136,-0.74158 0.30152,-0.75 -0.98919,-0.0181 6.16948,-13.18085 7.74999,-14.25 0.59734,-0.40408 0.74425,-0.74158 0.32646,-0.75 -0.4178,-0.008 0.4822,-2.37781 2,-5.26531 2.76173,-5.25402 3.65607,-9.75 1.93945,-9.75 -0.5022,0 -0.67774,-0.9 -0.39008,-2 0.28766,-1.1 0.18675,-2 -0.22424,-2 -0.67279,0 -3.17128,-9.23964 -3.52008,-13.01758 -0.0771,-0.83467 -0.48287,-2.07217 -0.90179,-2.75 -0.41892,-0.67783 -0.48356,-1.68242 -0.14364,-2.23242 0.33992,-0.55 0.18103,-1 -0.35309,-1 -0.80864,0 -2.42994,-5.82981 -2.64199,-9.5 -0.0318,-0.55 -0.42845,-1.59244 -0.88149,-2.31653 -0.45303,-0.72409 -0.55754,-1.58269 -0.23224,-1.90799 0.3253,-0.3253 0.18678,-1.08287 -0.30783,-1.68347 -1.2583,-1.52797 -4.0947,-12.76464 -3.47514,-13.76712 0.2804,-0.45369 -0.0192,-0.82489 -0.66583,-0.82489 -0.68332,0 -0.95663,-0.83755 -0.65264,-2 0.28766,-1.1 0.18675,-2 -0.22424,-2 -0.67279,0 -3.17128,-9.23964 -3.52008,-13.01758 -0.0771,-0.83467 -0.41309,-1.95967 -0.74673,-2.5 -1.08318,-1.75422 -3.7139,-12.81061 -3.23318,-13.58843 0.25691,-0.41569 -0.0209,-1.05741 -0.61738,-1.42604 -0.59647,-0.36864 -0.84846,-1.28532 -0.55999,-2.03708 0.28848,-0.75175 0.0635,-1.65175 -0.5,-2 -0.56347,-0.34824 -0.78294,-1.26265 -0.48771,-2.03202 0.29524,-0.76937 0.0484,-1.39885 -0.54846,-1.39885 -0.59688,0 -0.84989,-0.9 -0.56223,-2 0.28766,-1.1 0.15469,-2 -0.29547,-2 -0.68902,0 -2.29446,-6.12675 -2.48936,-9.5 -0.0318,-0.55 -0.34017,-1.45 -0.68531,-2 -1.14414,-1.82325 -3.73022,-12.83561 -3.21139,-13.67511 0.2804,-0.45369 -0.0192,-0.82489 -0.66583,-0.82489 -0.68332,0 -0.95663,-0.83755 -0.65264,-2 0.28766,-1.1 0.15469,-2 -0.29547,-2 -0.68902,0 -2.29446,-6.12675 -2.48936,-9.5 -0.0318,-0.55 -0.42845,-1.59244 -0.88149,-2.31653 -0.45303,-0.72409 -0.55754,-1.58269 -0.23224,-1.90799 0.3253,-0.3253 0.18431,-1.08287 -0.31331,-1.68347 -1.30025,-1.56933 -5.07235,-16.79194 -4.42181,-17.84454 0.30043,-0.486102 1.17571,-0.642262 1.94508,-0.347032 0.76937,0.295242 1.39885,0.14047 1.39885,-0.34393 0,-0.737643 6.00091,-2.349421 9.5,-2.551593 0.55,-0.03178 1.5625,-0.409942 2.25,-0.840365 0.6875,-0.430422 1.66157,-0.528225 2.16459,-0.217338 0.50302,0.310886 1.06552,0.155056 1.25,-0.346289 0.18448,-0.501345 1.65124,-1.066649 3.25948,-1.256231 2.50694,-0.295523 3.03582,0.07104 3.70746,2.569625 0.43087,1.602875 0.55098,3.290373 0.26692,3.750003 -0.28407,0.45962 0.0126,0.83568 0.65916,0.83568 0.68332,0 0.95663,0.83755 0.65264,2 -0.28766,1.1 -0.15469,2 0.29547,2 0.6704,0 1.95284,4.75984 2.55959,9.5 0.0704,0.55 0.41333,1.675 0.76207,2.5 1.53283,3.6261 5.5575,20.37724 5.0811,21.14808 -0.28958,0.46856 0.003,0.85192 0.64913,0.85192 0.6737,0 0.9577,0.83345 0.66518,1.95205 -0.28076,1.07363 -0.11599,2.08613 0.36616,2.25 0.48215,0.16387 1.02587,1.6683 1.20827,3.34318 0.1824,1.67487 0.6667,3.58737 1.07622,4.25 0.40953,0.66262 0.46648,1.65477 0.12656,2.20477 -0.33992,0.55 -0.11319,1 0.50384,1 0.61703,0 0.99232,0.7875 0.83398,1.75 -0.15835,0.9625 -0.005,2.2 0.3411,2.75 1.14431,1.81925 3.73229,12.83465 3.21286,13.67511 -0.2804,0.45369 0.0192,0.82489 0.66583,0.82489 0.68332,0 0.95663,0.83755 0.65264,2 -0.28766,1.1 -0.15469,2 0.29547,2 0.6704,0 1.95284,4.75984 2.55959,9.5 0.0704,0.55 0.40009,1.675 0.73265,2.5 1.61445,4.00509 5.57703,20.39325 5.11266,21.14461 -0.29076,0.47047 -0.11359,0.85539 0.39372,0.85539 0.9059,0 3.82897,11.30019 3.55677,13.75 -0.0764,0.6875 0.3136,1.25 0.86663,1.25 0.55304,0 0.77017,0.9 0.48251,2 -0.28766,1.1 -0.17663,2 0.24673,2 0.79532,0 3.6505,11.53267 3.40413,13.75 -0.0764,0.6875 0.19962,1.25 0.61336,1.25 0.41373,0 1.31622,2.65757 2.00552,5.90572 1.05247,4.95944 1.63517,5.97872 3.63665,6.36133 1.31085,0.25058 2.38336,0.0155 2.38336,-0.52235 0,-0.53788 0.9,-0.74261 2,-0.45495 1.1,0.28766 2,0.18675 2,-0.22424 0,-0.67279 9.23964,-3.17128 13.01758,-3.52008 0.83467,-0.0771 2.07217,-0.48287 2.75,-0.90179 0.67783,-0.41892 1.68242,-0.48356 2.23242,-0.14364 0.55,0.33992 1,0.21308 1,-0.28185 0,-0.79014 8.85477,-3.28839 13.01758,-3.67272 0.83467,-0.0771 2.07217,-0.48287 2.75,-0.90179 0.67783,-0.41892 1.68242,-0.48356 2.23242,-0.14364 0.55,0.33992 1,0.21308 1,-0.28185 0,-0.84282 9.69349,-3.63348 13.0012,-3.74291 0.82566,-0.0273 2.06316,-0.39698 2.75,-0.82147 0.68684,-0.42449 1.66771,-0.51291 2.1797,-0.19648 0.512,0.31644 1.23252,0.0873 1.60115,-0.50915 0.36864,-0.59647 1.29973,-0.84293 2.0691,-0.5477 0.76937,0.29524 1.39885,0.14047 1.39885,-0.34393 0,-0.73764 6.00091,-2.34942 9.5,-2.55159 0.55,-0.0318 1.45,-0.31934 2,-0.63901 1.96815,-1.14396 14.5397,-4.15955 15.08156,-3.61768 0.77822,0.77821 5.35781,17.58534 5.85189,21.47645 0.37723,2.97082 0.12781,3.30245 -3.16815,4.21251 -1.96768,0.54331 -3.9189,0.77689 -4.33604,0.51909 -0.41714,-0.25781 -0.91762,0.009 -1.11216,0.59243 -0.19455,0.58365 -2.03097,1.14895 -4.08093,1.25623 -2.04996,0.10728 -3.72922,0.46095 -3.73169,0.78593 -0.004,0.52131 -8.97606,2.88424 -13.00448,3.42491 -0.825,0.11072 -2.625,0.65764 -4,1.21537 -2.60451,1.05644 -8.39931,2.49056 -11.01758,2.72667 -0.83467,0.0753 -2.10211,0.49812 -2.81653,0.93966 -0.71442,0.44153 -1.56511,0.53663 -1.89041,0.21133 -0.3253,-0.3253 -1.08287,-0.18559 -1.68347,0.31046 -1.12724,0.93102 -12.51945,4.09916 -16.13431,4.4869 -1.12327,0.12049 -2.61571,0.57345 -3.31653,1.00658 -0.70083,0.43314 -1.54039,0.52136 -1.86569,0.19606 -0.3253,-0.3253 -1.08287,-0.18678 -1.68347,0.30783 -1.52797,1.2583 -12.76464,4.0947 -13.76712,3.47514 -0.45369,-0.2804 -0.82489,-0.005 -0.82489,0.61206 0,0.61703 -0.7875,1.02325 -1.75,0.90271 -0.9625,-0.12054 -3.01679,0.30117 -4.5651,0.93714 -1.5483,0.63597 -3.15413,1.15631 -3.5685,1.15631 -1.9769,0 -11.24299,3.20675 -10.73473,3.715 0.76878,0.76878 -5.39946,12.285 -6.58001,12.285 -0.50583,0 -0.64158,0.45 -0.30166,1 0.33992,0.55 0.0665,1 -0.60765,1 -0.67413,0 -0.92528,0.3004 -0.55812,0.66756 0.74176,0.74177 -4.96167,11.40875 -6.71941,12.56713 -0.61315,0.40408 -0.75093,0.74158 -0.30618,0.75 1.19348,0.0226 -5.40871,12.01531 -6.61463,12.01531 -0.56504,0 -0.73307,0.29427 -0.3734,0.65394 0.78931,0.78931 -6.38316,14.34606 -7.59006,14.34606 -0.46672,0 -0.57047,0.45 -0.23055,1 0.33992,0.55 0.0665,1 -0.60765,1 -0.67413,0 -0.94496,0.28072 -0.60186,0.62382 0.85174,0.85174 -3.07374,8.37618 -4.36983,8.37618 -0.57128,0 -0.76058,0.45 -0.42066,1 0.33992,0.55 0.11492,1 -0.5,1 -0.61492,0 -0.83992,0.45 -0.5,1 0.33992,0.55 0.0665,1 -0.60765,1 -0.67413,0 -0.93393,0.29175 -0.57734,0.64834 0.84843,0.84844 -4.32986,10.35166 -5.64061,10.35166 -0.55425,0 -0.72568,0.28205 -0.38095,0.62678 0.74091,0.74091 -2.01551,6.40399 -3.06913,6.30554 -0.39838,-0.0372 -1.73682,-0.55599 -2.97432,-1.15281 z m 88.75,-16.83287 c -3.84995,-1.59435 -5.95304,-4.97874 -5.97776,-9.61972 -0.038,-7.1329 5.50558,-11.04786 18.22776,-12.87268 4.04402,-0.58006 4.75,-1.01298 4.75,-2.9128 0,-5.34578 -5.72612,-6.75974 -13.83718,-3.41683 -3.12955,1.28982 -3.45619,1.22851 -5.25,-0.98539 -1.05205,-1.29844 -1.91282,-2.90307 -1.91282,-3.56586 0,-2.31001 8.00937,-5.80599 14.35621,-6.26629 7.92702,-0.5749 12.2484,1.59475 15.39379,7.72881 2.01239,3.92451 2.25,5.84401 2.25,18.17601 v 13.78811 h -3.96482 c -2.94321,0 -4.241,-0.51606 -5.03669,-2.00281 -1.06661,-1.99298 -1.0861,-1.99229 -3.97103,0.14063 -3.31144,2.44826 -11.19266,3.3969 -15.02746,1.80882 z m 14.77749,-8.50334 c 2.80428,-1.9642 3.15255,-7.44626 0.47251,-7.43772 -3.53284,0.0113 -9.22076,2.11976 -10.13755,3.75796 -2.48,4.43151 4.69285,7.16242 9.66504,3.67976 z m 18.22251,5.24751 c 0,-2.63252 1.84033,-5.70514 9,-15.02639 4.95,-6.44446 9,-11.93032 9,-12.19081 0,-0.26048 -3.825,-0.47361 -8.5,-0.47361 h -8.5 v -4 -4 h 15 c 11.2743,0 15.02749,0.31048 15.11069,1.25 0.37038,4.18263 -1.195,7.1845 -9.19038,17.62403 l -8.90406,11.62597 8.99187,0.28753 8.99188,0.28752 v 3.96248 3.96247 h -15.5 -15.5 z m 1.03654,-119.8649 c -5.39863,-1.54895 -8.8639,-4.55391 -11.72058,-10.16368 -4.48238,-8.80219 -3.33695,-18.58528 2.85267,-24.3645 7.91855,-7.39351 22.10921,-6.80255 26.94821,1.12223 2.84972,4.66698 4.27271,9.59049 3.10835,10.75485 -0.54487,0.54487 -5.82856,2.28856 -11.74154,3.87487 -5.91297,1.58631 -10.9767,3.11003 -11.25271,3.38605 -0.97911,0.97911 2.91405,5.6689 5.53233,6.66436 3.56579,1.35572 6.95828,0.39382 11.57678,-3.28244 3.32336,-2.64535 4.16808,-2.90716 6.27806,-1.94579 1.34091,0.61096 2.72961,1.87071 3.086,2.79944 0.96126,2.505 -6.83714,8.99376 -13.01329,10.82788 -5.70326,1.69368 -6.78432,1.72399 -11.65428,0.32673 z m 4.54933,-24.53503 c 3.52777,-0.94002 6.41413,-2.04749 6.41413,-2.46105 0,-1.75791 -4.60105,-4.82983 -7.23402,-4.82983 -3.35834,0 -7.76598,3.9471 -7.76598,6.95455 0,2.48056 0.46975,2.49896 8.58587,0.33633 z"
       id="path3752"
       inkscape:connector-curvature="0" />
    <path
       style="fill:#b0b0b0"
       d="m 180.11881,375.18624 c -1.1,-0.62377 -2.225,-1.39758 -2.5,-1.71959 -0.275,-0.322 -0.95,-0.67656 -1.5,-0.7879 -0.55,-0.11134 -4.17814,-1.91134 -8.06253,-4 -5.87712,-3.16016 -6.96812,-4.13609 -6.5,-5.81446 0.84097,-3.01521 12.19715,-23.9311 13.20362,-24.31851 0.47925,-0.18448 0.61701,-0.74698 0.30612,-1.25 -0.31088,-0.50302 -0.0137,-0.91459 0.66044,-0.91459 0.67413,0 0.95778,-0.2679 0.63034,-0.59534 -0.63512,-0.63512 6.04159,-13.48744 7.54122,-14.51646 0.49039,-0.3365 0.84714,-0.90205 0.7928,-1.2568 -0.1708,-1.11486 5.13598,-11.09574 6.30914,-11.86609 0.61537,-0.40408 0.78986,-0.74158 0.38777,-0.75 -0.90326,-0.0189 6.2142,-13.23395 7.67488,-14.25 0.58091,-0.40408 0.72721,-0.74158 0.32512,-0.75 -0.84295,-0.0177 6.16848,-13.20639 7.51029,-14.12711 0.49039,-0.3365 0.84714,-0.90205 0.7928,-1.2568 -0.0543,-0.35474 0.97307,-2.77943 2.28316,-5.38819 2.38773,-4.75468 2.74635,-7.6519 1.24735,-10.07732 -0.44153,-0.71442 -0.53663,-1.56511 -0.21133,-1.89041 0.3253,-0.3253 0.20429,-1.08287 -0.26891,-1.68347 -0.74798,-0.94937 -2.86285,-8.69998 -3.47114,-12.72113 -0.11406,-0.75399 -0.55878,-1.93338 -0.98828,-2.62088 -0.42949,-0.6875 -0.522,-1.66891 -0.20557,-2.1809 0.31644,-0.512 0.16901,-1.18203 -0.32762,-1.48896 -0.77885,-0.48135 -2.37508,-6.04231 -2.60639,-9.08014 -0.0419,-0.55 -0.44681,-1.59244 -0.89985,-2.31653 -0.45303,-0.72409 -0.55754,-1.58269 -0.23224,-1.90799 0.3253,-0.3253 0.20429,-1.08287 -0.26891,-1.68347 -0.74798,-0.94937 -2.86285,-8.69998 -3.47114,-12.72113 -0.11406,-0.75399 -0.57729,-1.96332 -1.0294,-2.68741 -0.4521,-0.72409 -0.55585,-1.58269 -0.23055,-1.90799 0.3253,-0.3253 0.20429,-1.08287 -0.26891,-1.68347 -0.80419,-1.02072 -3.53959,-10.87817 -3.63296,-13.09201 -0.0232,-0.55 -0.30844,-1.45 -0.63388,-2 -0.52619,-0.8893 -1.87858,-6.19932 -3.43827,-13.5 -0.29375,-1.375 -0.63294,-2.95 -0.75375,-3.5 -0.12081,-0.55 -0.58957,-1.59244 -1.04168,-2.31653 -0.4521,-0.72409 -0.55585,-1.58269 -0.23055,-1.90799 0.3253,-0.3253 0.12957,-1.148 -0.43495,-1.82821 -0.56453,-0.68021 -0.93796,-1.62162 -0.82985,-2.09201 0.10812,-0.47039 -0.33592,-2.14789 -0.98674,-3.72778 -0.65082,-1.57989 -1.31498,-4.07524 -1.47591,-5.54523 -0.16093,-1.46999 -0.54176,-3.10235 -0.84629,-3.62748 -0.52369,-0.90302 -2.71936,-9.62928 -3.16631,-12.58389 -0.11406,-0.75399 -0.55878,-1.93338 -0.98828,-2.62088 -0.42949,-0.6875 -0.522,-1.66891 -0.20557,-2.1809 0.31644,-0.512 0.16901,-1.18203 -0.32762,-1.48896 -0.49662,-0.30693 -1.18068,-2.02552 -1.52014,-3.81909 -1.2462,-6.58443 -1.9264,-9.32558 -2.91844,-11.76105 -0.33605,-0.825 -1.48346,-4.9891 -2.5498,-9.25355 -1.79686,-7.18586 -1.5538,-9.737462 0.78961,-8.289162 0.512,0.316442 1.18936,0.15715 1.50524,-0.35397 0.31589,-0.51111 2.48448,-1.279361 4.8191,-1.707218 4.65967,-0.853963 5.384,-1.012709 6.49476,-1.423416 0.4125,-0.152523 1.2,-0.364767 1.75,-0.471653 0.55,-0.106886 1.675,-0.445174 2.5,-0.751752 5.42206,-2.014884 5.61228,-1.915861 6.24465,3.250719 0.1683,1.375 0.65865,3.062502 1.08969,3.750002 0.43103,0.6875 0.5248,1.66891 0.20837,2.1809 -0.31644,0.512 -0.15715,1.18936 0.35397,1.50524 0.51111,0.31589 1.27936,2.48448 1.70722,4.8191 0.89136,4.86375 0.86288,4.75033 1.69365,6.74476 0.79903,1.91823 4.88666,17.86156 5.25589,20.5 0.15394,1.1 0.38593,2.225 0.51554,2.5 0.12961,0.275 0.3231,0.95 0.42999,1.5 0.10688,0.55 0.4831,1.675 0.83605,2.5 0.35294,0.825 0.77246,2.4 0.93227,3.5 0.15981,1.1 0.66011,2.59244 1.11178,3.31653 0.45166,0.72409 0.55504,1.58269 0.22974,1.90799 -0.3253,0.3253 -0.0812,1.20624 0.54237,1.95764 0.6236,0.75139 0.8486,1.65139 0.5,2 -0.34861,0.3486 -0.24666,1.12523 0.22654,1.72583 0.80419,1.02072 3.53959,10.87817 3.63296,13.09201 0.0232,0.55 0.39435,1.5625 0.82477,2.25 0.43042,0.6875 0.52369,1.66891 0.20726,2.1809 -0.31644,0.512 -0.15715,1.18936 0.35397,1.50524 0.51111,0.31589 1.27936,2.48448 1.70722,4.8191 0.89136,4.86375 0.86288,4.75033 1.69365,6.74476 0.69378,1.66556 4.84726,17.6393 5.20038,20 0.12341,0.825 0.48964,2.175 0.81385,3 0.85331,2.17137 2.95639,10.23953 3.13255,12.01758 0.0827,0.83467 0.51161,2.10211 0.95315,2.81653 0.44153,0.71442 0.53663,1.56511 0.21133,1.89041 -0.3253,0.3253 -0.20429,1.08287 0.26891,1.68347 0.74798,0.94937 2.86285,8.69998 3.47114,12.72113 0.11406,0.75399 0.48103,1.82088 0.81549,2.37088 0.33446,0.55 1.18217,3.59314 1.88381,6.76252 1.09473,4.94505 1.57192,5.7217 3.36377,5.47468 1.14844,-0.15831 2.68051,-0.65901 3.4046,-1.11266 0.72409,-0.45364 1.58269,-0.55865 1.90799,-0.23335 0.3253,0.3253 1.08287,0.20429 1.68347,-0.26891 0.94937,-0.74798 8.69998,-2.86285 12.72113,-3.47114 0.75399,-0.11406 1.96332,-0.57729 2.68741,-1.0294 0.72409,-0.4521 1.58269,-0.55585 1.90799,-0.23055 0.3253,0.3253 1.08287,0.20429 1.68347,-0.26891 1.02072,-0.80419 10.87817,-3.53959 13.09201,-3.63296 0.55,-0.0232 1.59244,-0.41285 2.31653,-0.86589 0.72409,-0.45303 1.58269,-0.55754 1.90799,-0.23224 0.3253,0.3253 1.08287,0.20429 1.68347,-0.26891 0.94937,-0.74798 8.69998,-2.86285 12.72113,-3.47114 0.75399,-0.11406 1.93338,-0.55878 2.62088,-0.98828 0.6875,-0.42949 1.66891,-0.522 2.1809,-0.20557 0.512,0.31644 1.23252,0.0873 1.60115,-0.50915 0.36864,-0.59647 1.28532,-0.84846 2.03708,-0.55999 0.75175,0.28848 1.60859,0.13331 1.90409,-0.34481 0.29549,-0.47812 2.4474,-1.21938 4.78202,-1.64724 4.85717,-0.89016 4.74615,-0.86234 6.74476,-1.69005 2.62513,-1.08718 14.20671,-3.83267 14.5825,-3.45688 0.45602,0.45601 5.17791,18.32459 5.80546,21.96902 0.423,2.45648 0.11394,2.78912 -3.20995,3.45489 -4.58059,0.91748 -4.35544,0.85602 -6.28811,1.71659 -0.88555,0.39432 -2.68555,0.85845 -4,1.03141 -1.31444,0.17295 -3.0649,0.57529 -3.8899,0.89409 -3.93585,1.52088 -12.39391,3.62425 -12.82805,3.19011 -0.26836,-0.26836 -0.97934,-0.10076 -1.57994,0.37244 -0.95145,0.74962 -7.46356,2.53095 -13.22113,3.61651 -1.02899,0.19401 -2.09588,0.45572 -2.37088,0.58157 -0.275,0.12586 -0.95,0.31628 -1.5,0.42317 -0.55,0.10688 -1.675,0.46925 -2.5,0.80526 -1.99289,0.81168 -14.09297,3.93411 -16.01758,4.13335 -0.83467,0.0864 -2.10211,0.51836 -2.81653,0.9599 -0.71442,0.44153 -1.56511,0.53663 -1.89041,0.21133 -0.3253,-0.3253 -1.08287,-0.20429 -1.68347,0.26891 -0.91541,0.72122 -9.6964,3.23049 -13.09201,3.74118 -0.55,0.0827 -1.45,0.27085 -2,0.41806 -0.55,0.14722 -1.45,0.35396 -2,0.45942 -0.55,0.10547 -2.26679,0.71192 -3.8151,1.34769 -1.5483,0.63576 -3.15413,1.15593 -3.5685,1.15593 -1.89874,0 -11.25326,3.19647 -10.7697,3.68004 0.61606,0.61605 -5.33454,11.63899 -6.56192,12.15537 -0.43848,0.18448 -0.54288,0.74698 -0.23199,1.25 0.31088,0.50302 0.0887,0.91459 -0.49377,0.91459 -0.58246,0 -0.969,0.3375 -0.85898,0.75 0.29029,1.08837 -5.25977,11.61699 -6.58119,12.48469 -0.61537,0.40408 -0.74832,0.74158 -0.29546,0.75 0.96387,0.0179 -5.18636,11.1673 -6.75736,12.25 -0.58632,0.40408 -0.73704,0.74158 -0.33495,0.75 0.8802,0.0184 -6.29269,13.37172 -7.44009,13.85072 -0.4419,0.18448 -0.54909,0.74698 -0.2382,1.25 0.31088,0.50302 0.0887,0.91459 -0.49377,0.91459 -0.58246,0 -0.97794,0.3375 -0.87885,0.75 0.29379,1.22295 -3.47475,8.25 -4.4244,8.25 -0.48059,0 -0.59569,0.45 -0.25577,1 0.33992,0.55 0.11492,1 -0.5,1 -0.61492,0 -0.83992,0.45 -0.5,1 0.33992,0.55 0.14148,1 -0.44098,1 -0.58246,0 -1.05902,0.64928 -1.05902,1.44284 0,1.67588 -3.92013,8.71216 -5.45535,9.79185 -0.57456,0.40408 -0.68171,0.74158 -0.23811,0.75 0.44359,0.008 0.009,1.36531 -0.96561,3.01531 -1.98408,3.35878 -2.05461,3.38508 -4.84093,1.80505 z m 89.91867,-16.84905 c -4.23989,-1.27385 -6.48959,-4.06588 -7.13134,-8.85046 -0.48614,-3.62446 -0.18214,-4.41073 2.89515,-7.48802 3.591,-3.591 8.38616,-5.36847 15.56752,-5.77057 3.85512,-0.21586 4.25,-0.48078 4.25,-2.85133 0,-6.0884 -5.84702,-8.19457 -12.78669,-4.60592 -3.6686,1.8971 -5.54373,1.37528 -7.06632,-1.96643 -1.01699,-2.23206 -0.81585,-2.65605 2.11455,-4.45724 7.25523,-4.45945 16.55318,-4.98808 21.5901,-1.22748 5.82711,4.35057 6.20389,5.64166 6.43451,22.04897 l 0.21385,15.2137 -3.84362,-6.1e-4 c -3.00232,-4.8e-4 -3.9581,-0.43837 -4.36663,-2.00061 -0.63653,-2.43409 -0.43594,-2.43081 -4.48259,-0.0733 -4.16991,2.4293 -9.41242,3.22392 -13.38849,2.02933 z m 14.17825,-9.03643 c 0.77169,-0.64045 1.40308,-2.45936 1.40308,-4.04201 0,-2.49715 -0.37687,-2.87756 -2.85078,-2.87756 -4.05598,0 -8.88461,1.86805 -9.59172,3.71075 -0.87397,2.27753 0.26875,5.10185 2.23949,5.53506 2.14955,0.47252 6.95978,-0.79906 8.79993,-2.32624 z m 17.40308,6.13567 c 0,-2.16942 2.49547,-6.25052 9.4778,-15.5 l 9.4778,-12.55524 h -8.9778 -8.9778 v -4 -4 h 15 15 v 3.21393 c 0,2.50738 -1.97853,5.80513 -9,15.00092 -4.95,6.48285 -9,12.01159 -9,12.28608 0,0.27449 4.05,0.49907 9,0.49907 h 9 v 4 4 h -15.5 -15.5 z m -2.5,-121.92594 c -9.53933,-5.92465 -13.37672,-18.57013 -8.52264,-28.08492 4.93432,-9.67207 19.13597,-13.02713 27.02912,-6.38547 3.7677,3.17031 5.99352,7.3067 5.99352,11.13818 0,2.84183 -0.20256,2.9492 -10.75,5.69821 -14.64493,3.81695 -14.36107,3.59363 -10.04892,7.90578 4.50794,4.50794 7.93207,4.65998 13.89844,0.61712 4.91145,-3.32804 6.54707,-3.60102 9.2607,-1.54556 1.80038,1.36371 1.78749,1.51117 -0.4005,4.58393 -4.93749,6.93406 -19.63985,10.30838 -26.45972,6.07273 z m 8.30268,-22.65397 c 6.53857,-1.83463 7.22259,-2.68494 4.54233,-5.64659 -2.33157,-2.57636 -8.11311,-2.39523 -11.03056,0.34557 -2.53455,2.38109 -3.34706,8.43592 -1.01177,7.53978 0.71647,-0.27493 4.09147,-1.28238 7.5,-2.23876 z"
       id="path3750"
       inkscape:connector-curvature="0" />
    <path
       style="fill:#8d8d8d"
       d="m 180.11881,375.18624 c -1.1,-0.62377 -2.225,-1.39758 -2.5,-1.71959 -0.275,-0.322 -3.9875,-2.3171 -8.25,-4.43356 -4.60564,-2.28683 -7.75,-4.46795 -7.75,-5.37586 0,-1.47703 11.69909,-24.26366 12.9772,-25.27604 0.34718,-0.275 2.32072,-4.08974 4.38563,-8.47721 2.06491,-4.38746 4.07024,-8.21246 4.45628,-8.5 0.38604,-0.28753 1.82217,-2.96448 3.19139,-5.94878 1.36923,-2.98429 2.9395,-5.90929 3.4895,-6.5 0.55,-0.5907 2.35,-3.96196 4,-7.49168 1.65,-3.52972 3.45,-6.90472 4,-7.5 0.55,-0.59528 2.575,-4.19896 4.5,-8.00818 1.925,-3.80922 4.93785,-9.65922 6.69522,-13 2.25605,-4.28879 3.05295,-6.95593 2.71119,-9.07415 -0.6464,-4.00638 -0.85733,-4.8215 -1.55266,-6 -0.52478,-0.88946 -1.87911,-6.2097 -3.43658,-13.5 -0.7933,-3.71334 -0.92336,-4.18936 -2.18573,-8 -0.63771,-1.925 -1.42431,-4.85 -1.748,-6.5 -0.66754,-3.4027 -0.58879,-3.10562 -2.78313,-10.5 -0.89769,-3.025 -1.89614,-6.85 -2.21878,-8.5 -0.66512,-3.40144 -0.58581,-3.10201 -2.78122,-10.5 -0.89769,-3.025 -1.84228,-6.625 -2.0991,-8 -0.25681,-1.375 -1.14939,-4.75 -1.98349,-7.5 -0.83411,-2.75 -1.74125,-6.125 -2.01588,-7.5 -0.47018,-2.35413 -0.81215,-3.81838 -2.1603,-9.25 -0.30715,-1.2375 -0.65731,-2.7 -0.77812,-3.25 -0.12081,-0.55 -0.50365,-1.45343 -0.85076,-2.00762 -0.51611,-0.82403 -1.15407,-3.43585 -2.31858,-9.49238 -0.0529,-0.275 -0.83589,-2.975 -1.74004,-6 -0.90416,-3.025 -1.91734,-6.85 -2.25153,-8.5 -0.81346,-4.0164 -0.92894,-4.44859 -2.27107,-8.5 -0.63771,-1.925 -1.37759,-4.625 -1.64419,-6 -0.54361,-2.80371 -0.61624,-3.08033 -4.00393,-15.25 -1.33966,-4.8125 -2.01896,-8.80625 -1.50954,-8.875 1.89992,-0.256412 2.45096,-0.420892 3.42622,-1.022718 0.55,-0.339399 2.35,-0.902599 4,-1.251555 9.99426,-2.11367 10.59022,-2.264522 13.69688,-3.466982 2.92538,-1.132297 3.06985,-0.952687 4.3164,5.366253 0.78215,3.964822 0.89987,4.408502 2.25528,8.500002 0.63771,1.925 1.38073,4.625 1.65117,6 0.27044,1.375 1.61373,6.46356 2.98507,11.3079 1.37135,4.84435 2.75874,10.24435 3.08309,12 0.64982,3.51737 0.91082,4.47068 1.83216,6.6921 0.34217,0.825 0.83707,2.625 1.09978,4 0.85328,4.46608 1.52835,7.076 3.87986,15 0.89769,3.025 1.89614,6.85 2.21878,8.5 0.77221,3.94907 0.89044,4.39571 2.25009,8.5 0.63771,1.925 1.37777,4.625 1.64459,6 0.26682,1.375 1.82454,7.34655 3.4616,13.27012 1.63706,5.92357 2.96468,10.87357 2.95025,11 -0.0144,0.12643 0.67872,2.70488 1.54031,5.72988 0.8616,3.025 1.83052,6.85 2.15316,8.5 0.88787,4.54056 0.99101,4.92075 1.62778,6 0.50764,0.86041 1.63333,5.23789 3.34301,13 0.24228,1.1 1.22993,4.82398 2.19477,8.27551 1.72553,6.1728 1.80385,6.26627 4.78511,5.71119 1.66697,-0.31038 3.48086,-0.69705 4.03086,-0.85927 0.55,-0.16222 3.475,-1.02943 6.5,-1.92712 3.025,-0.89769 6.85,-1.89614 8.5,-2.21878 3.40144,-0.66512 3.10201,-0.58581 10.5,-2.78122 3.025,-0.89769 6.85,-1.89614 8.5,-2.21878 3.40144,-0.66512 3.10201,-0.58581 10.5,-2.78122 3.025,-0.89769 6.625,-1.84943 8,-2.11497 1.375,-0.26555 3.625,-0.75719 5,-1.09254 1.375,-0.33534 2.95,-0.70857 3.5,-0.82938 0.55,-0.12081 1.45,-0.49159 2,-0.82394 0.55,-0.33236 2.35,-0.8898 4,-1.23875 1.65,-0.34896 3.9,-0.82742 5,-1.06326 1.1,-0.23583 5.14857,-1.35324 8.99682,-2.48313 3.84825,-1.12989 7.26678,-2.05434 7.59674,-2.05434 0.54059,0 5.403,17.30959 6.37266,22.68587 0.30751,1.70496 -0.19543,2.31369 -2.28599,2.76687 -1.47413,0.31955 -3.58023,0.77373 -4.68023,1.0093 -1.1,0.23556 -3.4625,0.87156 -5.25,1.41332 -1.7875,0.54177 -3.25,0.73634 -3.25,0.43239 0,-0.30395 -0.5625,-0.10647 -1.25,0.43885 -1.05195,0.83439 -7.79848,2.7396 -12.87912,3.63704 -0.75399,0.13318 -3.84588,0.97657 -6.87088,1.87419 -3.025,0.89763 -6.625,1.85875 -8,2.13584 -3.76336,0.75839 -5.85868,1.30923 -13.33211,3.50489 -3.75766,1.10398 -8.25766,2.27089 -10,2.59315 -1.74234,0.32225 -3.61789,0.71864 -4.16789,0.88086 -0.55,0.16222 -3.475,1.02943 -6.5,1.92712 -3.025,0.89769 -6.85,1.89614 -8.5,2.21878 -3.93537,0.76953 -3.67327,0.69596 -13.5,3.78947 l -8.5,2.67586 -2.89155,6.5081 c -1.59035,3.57945 -3.30441,6.5081 -3.80902,6.5081 -0.5046,0 -0.6631,0.41157 -0.35222,0.91459 0.31089,0.50302 0.22495,1.06552 -0.19098,1.25 -0.41593,0.18448 -1.88123,2.7771 -3.25623,5.7614 -1.375,2.98429 -2.95,5.90929 -3.5,6.5 -0.55,0.5907 -2.24625,3.54901 -3.76945,6.57401 -1.5232,3.025 -4.74636,9.1 -7.16257,13.5 -2.41622,4.4 -5.61629,10.5875 -7.11127,13.75 -1.49497,3.1625 -3.02799,5.75 -3.4067,5.75 -0.37872,0 -2.17178,3.375 -3.98458,7.5 -1.8128,4.125 -3.60373,7.5 -3.97983,7.5 -0.3761,0 -1.25335,1.575 -1.94944,3.5 -1.38402,3.82744 -1.68638,3.97777 -4.63616,2.30505 z m 87.24998,-17.88516 c -2.92032,-1.70093 -4.9974,-6.7875 -4.29674,-10.52232 1.07864,-5.74963 9.47767,-10.37827 18.85713,-10.39199 3.78549,-0.006 3.80834,-0.0299 3.5,-3.72416 -0.42856,-5.13468 -4.20732,-7.38621 -9.02207,-5.3757 -5.06827,2.11636 -8.79399,1.92224 -10.44927,-0.54444 -1.33597,-1.99085 -1.20205,-2.28282 1.93695,-4.22283 7.88352,-4.87228 18.92743,-4.82496 23.41419,0.10031 3.89524,4.27596 4.30983,6.31487 4.30983,21.1955 v 14.56574 h -2.9433 c -1.86701,0 -3.48734,-0.77674 -4.4311,-2.12414 l -1.4878,-2.12414 -3.43694,2.12414 c -3.74483,2.31443 -12.75698,2.9043 -15.95088,1.04403 z m 14.78214,-6.36886 c 3.03409,-1.26773 3.46788,-1.89317 3.46788,-5 0,-3.40112 -0.14986,-3.55103 -3.54966,-3.55103 -5.1354,0 -9.45034,2.50029 -9.45034,5.47599 0,2.36373 2.20148,4.4324 4.78212,4.4936 0.70516,0.0167 2.84266,-0.62163 4.75,-1.41856 z m 19.46788,5.06118 c 0,-2.52454 3.68235,-8.30286 13.13555,-20.61221 l 5.75977,-7.5 -8.94766,-0.28753 -8.94766,-0.28752 v -3.96248 -3.96247 h 15 15 v 2.968 c 0,2.18522 -2.37369,6.12124 -9,14.9237 -4.95,6.57563 -9,12.21503 -9,12.532 0,0.31696 3.825,0.5763 8.5,0.5763 h 8.5 v 4 4 h -15 -15 z m -1.49777,-122.18761 c -4.67526,-2.43775 -6.59981,-4.52883 -9.1342,-9.9246 -6.15727,-13.10897 0.73988,-26.26311 14.71294,-28.06029 8.41143,-1.08185 18.44862,7.15807 17.67642,14.51127 -0.27116,2.58213 0.40474,2.29867 -17.99782,7.54793 l -5.74042,1.63744 1.50078,2.90218 c 3.07046,5.93762 9.78482,6.69652 16.46074,1.86051 3.63995,-2.63676 4.63542,-2.93936 6.65004,-2.02144 3.1868,1.45201 2.98275,3.28531 -0.77452,6.95874 -5.731,5.60312 -17.11731,7.84014 -23.35396,4.58826 z m 5.99777,-22.3265 c 7.85299,-2.07464 8.95049,-3.92601 4.35932,-7.35381 -2.31646,-1.72949 -3.08477,-1.82499 -6.25768,-0.77784 -3.79376,1.25206 -5.18847,2.97078 -5.98781,7.37885 -0.56753,3.12976 -0.96691,3.09164 7.88617,0.7528 z"
       id="path3748"
       inkscape:connector-curvature="0" />
    <path
       style="fill:#737373"
       d="m 181.06881,375.47085 c -0.5225,-0.50069 -5.1125,-3.04244 -10.2,-5.64833 -5.0875,-2.60589 -9.25,-5.34934 -9.25,-6.09655 0,-0.74721 2.8125,-6.55467 6.25,-12.90547 3.4375,-6.3508 7.84459,-14.5602 9.79354,-18.24311 3.90004,-7.36989 9.40742,-17.67761 15.59942,-29.1962 19.17211,-35.66464 19.51676,-36.38961 18.84432,-39.63819 -0.74995,-3.62306 -0.78714,-3.76346 -2.74511,-10.36181 -0.89763,-3.025 -1.85875,-6.625 -2.13584,-8 -0.27709,-1.375 -0.74426,-3.4 -1.03814,-4.5 -0.29389,-1.1 -1.23374,-4.7 -2.08856,-8 -0.85482,-3.3 -1.75584,-6.675 -2.00226,-7.5 -0.24643,-0.825 -1.37504,-5.1 -2.50804,-9.5 -1.13299,-4.4 -2.25799,-8.675 -2.5,-9.5 -0.242,-0.825 -1.32266,-4.875 -2.40146,-9 -1.0788,-4.125 -2.70589,-10.2 -3.61575,-13.5 -0.90985,-3.3 -1.8338,-6.7875 -2.0532,-7.75 -0.21941,-0.9625 -0.62392,-2.65 -0.89892,-3.75 -0.275,-1.1 -0.75131,-3.0125 -1.05846,-4.25 -0.67455,-2.71772 -0.76661,-3.05632 -2.37791,-8.7461 -0.70029,-2.47286 -1.43356,-5.17286 -1.62949,-6 -0.19592,-0.82715 -1.09424,-4.2039 -1.99627,-7.5039 -0.90202,-3.3 -1.81955,-6.7875 -2.03895,-7.75 -0.21941,-0.9625 -0.61563,-2.5375 -0.8805,-3.5 -0.26487,-0.9625 -1.34708,-5.125 -2.40491,-9.25 -1.05782,-4.125 -3.04856,-11.4375 -4.42385,-16.25 -1.37529,-4.8125 -2.20558,-8.78443 -1.84509,-8.82651 0.36049,-0.0421 1.33043,-0.25468 2.15543,-0.472442 0.825,-0.21777 4.2,-1.104836 7.5,-1.971269 3.3,-0.866433 6.45,-1.708463 7,-1.871176 7.55381,-2.234743 7.98615,-2.071032 8.95612,3.391395 0.34182,1.925002 0.75323,3.950002 0.91424,4.500002 1.11511,3.80915 2.89639,10.24186 3.18338,11.4961 0.18926,0.82715 1.48306,5.66512 2.87511,10.75106 1.39205,5.08594 2.74197,10.26094 2.99981,11.5 0.52454,2.52065 0.59366,2.79079 4.15863,16.25284 0.2913,1.1 0.64412,2.45 0.78406,3 0.13994,0.55 0.98886,3.475 1.88648,6.5 0.89763,3.025 1.90547,6.85 2.23966,8.5 0.33418,1.65 0.73316,3.45 0.88661,4 0.15346,0.55 0.85198,3.02325 1.55227,5.4961 0.70029,2.47286 1.42811,5.17286 1.61737,6 0.18926,0.82715 1.48306,5.66512 2.87511,10.75106 1.39205,5.08594 2.74608,10.26094 3.00894,11.5 0.26286,1.23906 1.21738,4.95284 2.12115,8.25284 0.90377,3.3 1.84904,6.9 2.1006,8 0.69964,3.05935 0.84704,3.59827 2.59829,9.5 0.89763,3.025 1.86715,6.625 2.15451,8 0.28735,1.375 1.27194,5.33009 2.18797,8.7891 1.944,7.34063 0.53989,7.12056 16.89969,2.64877 3.3,-0.90202 6.7875,-1.81955 7.75,-2.03895 2.17141,-0.49498 3.69824,-0.89685 11.25,-2.96105 3.3,-0.90202 6.7875,-1.81955 7.75,-2.03895 2.17141,-0.49498 3.69824,-0.89685 11.25,-2.96105 3.3,-0.90202 6.7875,-1.81955 7.75,-2.03895 2.33833,-0.53303 5.36022,-1.29132 7.5,-1.882 0.9625,-0.26569 4.225,-1.14005 7.25,-1.94302 3.025,-0.80297 8.85785,-2.36524 12.96188,-3.47171 4.10404,-1.10647 7.54608,-1.91961 7.64899,-1.80698 0.26388,0.2888 5.33971,19.75064 5.83112,22.35778 0.33738,1.78997 -0.21365,2.28272 -3.26809,2.92247 -4.47463,0.93719 -4.22277,0.87362 -6.6739,1.68443 -1.1,0.36387 -3.125,0.88528 -4.5,1.1587 -1.375,0.27342 -5.2,1.23658 -8.5,2.14035 -3.3,0.90377 -6.675,1.80521 -7.5,2.00319 -0.825,0.19797 -4.2,1.09797 -7.5,2 -3.3,0.90202 -6.7875,1.81955 -7.75,2.03895 -0.9625,0.21941 -2.5375,0.6083 -3.5,0.86422 -0.9625,0.25591 -5.35,1.42441 -9.75,2.59666 -4.4,1.17225 -8.7875,2.31286 -9.75,2.5347 -2.19745,0.50647 -3.78056,0.92377 -11.25,2.96547 -3.3,0.90202 -6.7875,1.81955 -7.75,2.03895 -2.46376,0.56162 -4.20456,1.04673 -13.01156,3.62591 l -7.76157,2.27301 -3.02496,6 c -1.66373,3.3 -4.72112,9.15 -6.79419,13 -2.07308,3.85 -5.4646,10.15 -7.53671,14 -2.07211,3.85 -5.58919,10.375 -7.81573,14.5 -2.22654,4.125 -5.3967,10.2 -7.04479,13.5 -1.6481,3.3 -3.32319,6.225 -3.72243,6.5 -0.65157,0.4488 -2.64622,4.24746 -9.3204,17.75 -2.19584,4.44241 -2.70283,4.83916 -4.26766,3.33966 z m 86.52251,-18.7817 c -3.50552,-2.39896 -3.93996,-3.27916 -3.9572,-8.01749 -0.0121,-3.31505 0.56686,-4.74935 2.72447,-6.75 1.50688,-1.39726 3.08188,-2.59672 3.5,-2.66547 1.25182,-0.20583 2.16785,-0.50708 4.01876,-1.32163 0.9672,-0.42565 4.1172,-1.07235 7,-1.43711 l 5.24146,-0.6632 -0.27303,-3.47653 c -0.46613,-5.93527 -4.62359,-7.40212 -12.2879,-4.33547 -3.94203,1.57728 -4.18068,1.56177 -6.14159,-0.39914 -2.52989,-2.52989 -1.75272,-3.90435 3.57589,-6.32408 9.22051,-4.18706 20.21295,-1.5455 23.18681,5.57194 2.15734,5.16325 2.05427,30.3372 -0.12764,31.17448 -1.99283,0.76472 -6.43254,-1.56496 -6.43254,-3.37539 0,-0.98458 -1.22758,-0.65377 -4.33786,1.16898 -5.15611,3.02168 -11.9764,3.39123 -15.68963,0.85011 z m 13.52749,-4.30796 c -0.33992,-0.55 0.0138,-1 0.786,-1 2.40973,0 4.8856,-3.63369 4.53896,-6.66157 -0.30986,-2.70651 -0.5341,-2.82327 -4.82496,-2.51232 -5.63504,0.40837 -9,2.49259 -9,5.5745 0,2.89285 1.57809,4.28762 5.5,4.86107 1.65,0.24126 3.13906,0.50608 3.30902,0.58849 0.16996,0.0824 0.0309,-0.30017 -0.30902,-0.85017 z m 21.38931,5.25 c -0.62175,-4.2127 1.5209,-7.82946 15.36069,-25.92866 1.5125,-1.97799 2.75,-3.98447 2.75,-4.45884 0,-0.47438 -3.825,-0.8625 -8.5,-0.8625 h -8.5 v -3.5 -3.5 h 14.45779 14.45779 l -0.27387,3.25 c -0.31379,3.72368 -8.31466,15.07016 -9.92486,14.075 -0.59143,-0.36552 -0.72226,-0.14276 -0.30893,0.52601 0.65411,1.05837 -4.81235,8.95889 -8.1666,11.80299 -2.03376,1.72443 -0.58509,2.07345 8.75868,2.11017 l 8.5,0.0334 0.31037,3.60121 0.31036,3.60121 h -14.56036 c -8.00821,0 -14.61018,-0.3375 -14.67106,-0.75 z m -2.38931,-124.06891 c -4.82189,-2.28874 -7.97957,-5.59611 -6.94345,-7.27259 0.46581,-0.7537 0.33488,-0.95943 -0.3437,-0.54005 -1.92919,1.19231 -4.58946,-9.3714 -3.75736,-14.92018 1.00597,-6.70834 7.0439,-12.74626 14.30309,-14.30308 6.25172,-1.34075 10.34476,-0.19318 15.01768,4.21053 3.08155,2.90402 6.2216,9.97975 4.97985,11.2215 -0.76119,0.7612 -20.38881,6.42278 -22.26654,6.42278 -2.25297,0 -1.7912,2.48808 1.09932,5.92327 2.21227,2.62913 3.27021,3.07673 7.27216,3.07673 3.77176,0 5.42258,-0.60941 8.48185,-3.13112 3.43796,-2.83386 4.02922,-3.00769 6.22785,-1.83102 3.13186,1.67612 3.0632,2.99482 -0.32075,6.16089 -6.63663,6.2093 -16.71205,8.32295 -23.75,4.98234 z m 9.42638,-22.75187 5.08341,-1.50961 -1.52308,-2.94532 c -1.83273,-3.5441 -5.16626,-4.56518 -9.85361,-3.01822 -2.49161,0.82231 -3.77832,2.02175 -4.55311,4.24431 -2.29715,6.58961 -1.38496,6.86116 10.84639,3.22884 z"
       id="path3746"
       inkscape:connector-curvature="0" />
    <path
       style="fill:#6b6b6b"
       d="m 172.36881,370.58855 c -5.9125,-3.09053 -10.75,-6.23942 -10.75,-6.99754 0,-0.75812 2.75531,-6.40297 6.12291,-12.54411 3.3676,-6.14114 8.02059,-14.76571 10.33999,-19.16571 2.3194,-4.4 5.77543,-10.925 7.68007,-14.5 3.25418,-6.10807 5.09561,-9.54021 15.82748,-29.5 12.19302,-22.6773 11.62672,-21.0375 9.66964,-28 -1.52987,-5.44267 -3.88669,-14.19492 -4.24117,-15.75 -0.21941,-0.9625 -0.61631,-2.5375 -0.882,-3.5 -0.26569,-0.9625 -1.18247,-4.45 -2.03729,-7.75 -0.85482,-3.3 -1.75584,-6.675 -2.00226,-7.5 -0.24643,-0.825 -1.37504,-5.1 -2.50804,-9.5 -1.13299,-4.4 -2.25799,-8.675 -2.5,-9.5 -0.4595,-1.56645 -3.26973,-12.20294 -6.60518,-25 -2.74431,-10.52907 -2.80647,-10.76928 -3.36415,-13 -0.275,-1.1 -0.71739,-2.7875 -0.98308,-3.75 -1.29084,-4.67619 -3.64996,-13.53315 -5.52693,-20.75 -1.14435,-4.4 -2.27696,-8.675 -2.5169,-9.5 -0.23994,-0.825 -1.28759,-4.875 -2.32812,-9 -1.04052,-4.125 -2.88071,-11.00429 -4.08931,-15.28732 -2.32641,-8.24434 -2.32664,-9.85039 -0.001,-10.346262 0.79518,-0.16959 5.04579,-1.248058 9.44579,-2.396608 4.4,-1.148549 8.99176,-2.335113 10.2039,-2.636807 1.79999,-0.448004 2.32102,-0.02479 2.84295,2.30923 0.35147,1.571771 0.90723,3.757767 1.23501,4.857767 0.85324,2.86338 1.00098,3.39555 2.63748,9.5 2.98439,11.13232 6.78028,25.54927 7.17476,27.25 0.22324,0.9625 0.6105,2.5375 0.86057,3.5 2.82018,10.85467 4.65694,17.74775 6.06208,22.75 0.92698,3.3 1.86493,6.7875 2.08433,7.75 0.21941,0.9625 0.61631,2.5375 0.882,3.5 0.58748,2.12821 2.53804,9.45338 6.05792,22.75 3.14649,11.8861 2.90331,10.95585 5.48967,21 1.13299,4.4 2.25799,8.675 2.5,9.5 0.242,0.825 1.32701,4.875 2.41113,9 5.73614,21.82556 5.09276,20.2327 7.95445,19.69317 1.43206,-0.27 3.50375,-0.75481 4.60375,-1.07737 1.1,-0.32256 5.6,-1.51347 10,-2.64647 4.4,-1.13299 8.675,-2.2592 9.5,-2.50268 0.825,-0.24349 5.775,-1.55089 11,-2.90535 5.225,-1.35445 13.1,-3.40524 17.5,-4.5573 4.4,-1.15206 8.7875,-2.29926 9.75,-2.54933 0.9625,-0.25007 2.5375,-0.67206 3.5,-0.93775 0.9625,-0.26569 4.225,-1.11576 7.25,-1.88904 3.025,-0.77329 8.84367,-2.34973 12.93039,-3.50321 4.08671,-1.15347 7.49972,-1.9909 7.58446,-1.86095 0.27593,0.42314 5.71596,21.19305 5.95506,22.73628 0.1674,1.08047 -1.75369,2.00716 -6.86875,3.31333 -3.90564,0.99733 -7.77616,2.00323 -8.60116,2.23534 -1.73367,0.48774 -14.12544,3.75282 -25,6.58718 -4.125,1.07514 -8.175,2.1529 -9,2.395 -0.825,0.24211 -6,1.59482 -11.5,3.00602 -5.5,1.41121 -10.675,2.76112 -11.5,2.99982 -0.825,0.23869 -5.1,1.36098 -9.5,2.49398 -8.93235,2.30007 -8.13433,2.07843 -18.7097,5.19632 -7.64652,2.25438 -7.73332,2.31808 -10.59273,7.77301 -4.35609,8.31016 -10.40911,19.68305 -14.63639,27.5 -2.08202,3.85 -5.59913,10.375 -7.81581,14.5 -2.21668,4.125 -5.37828,9.975 -7.02576,13 -4.89445,8.98682 -10.86334,20.21221 -13.11424,24.66325 l -2.10582,4.16325 z m 98.8513,-13.04345 c -0.25451,-0.41181 0.40608,-0.81419 1.46798,-0.89418 2.29656,-0.17299 2.4986,0.29838 0.46275,1.07961 -0.80739,0.30982 -1.67622,0.22638 -1.93073,-0.18543 z m 22.13203,-0.288 c 0.67834,-0.68342 1.48524,-0.99067 1.79313,-0.68278 0.30789,0.30789 -0.24711,0.86705 -1.23333,1.24258 -1.4252,0.54268 -1.54006,0.42782 -0.5598,-0.5598 z m -26.24864,-0.90069 c -0.34834,-0.56362 -0.2624,-0.90112 0.19098,-0.75 0.45338,0.15113 0.82433,-0.17217 0.82433,-0.71843 0,-0.54627 -0.50247,-0.87783 -1.1166,-0.7368 -0.61413,0.14103 -1.60341,-0.33016 -2.1984,-1.04708 -0.85308,-1.0279 -0.32654,-1.32363 2.49032,-1.39869 2.00808,-0.0535 3.03337,0.23779 2.34164,0.6653 -0.96544,0.59667 -0.96801,0.9227 -0.0119,1.5136 0.68036,0.42048 1.6041,0.14443 2.09145,-0.625 0.48009,-0.75797 0.87978,-0.91563 0.8882,-0.35036 0.0142,0.95543 -3.47494,4.47224 -4.4371,4.47224 -0.23626,0 -0.71456,-0.46115 -1.0629,-1.02478 z m 21.51531,-0.97522 c -0.5887,-1.1 -0.92954,-2 -0.75742,-2 0.17211,0 1.08354,0.9 2.02539,2 0.94185,1.1 1.28269,2 0.75743,2 -0.52527,0 -1.4367,-0.9 -2.0254,-2 z m -6.51008,-0.0163 c -0.34546,-0.55897 -1.04346,-0.75962 -1.5511,-0.44588 -0.50764,0.31374 -1.6508,0.16313 -2.54036,-0.3347 -1.48159,-0.82914 -1.4779,-0.95865 0.044,-1.54266 1.08124,-0.41492 1.42005,-0.24704 0.97026,0.48074 -0.41985,0.67933 -0.14585,0.92016 0.69806,0.61354 0.76406,-0.2776 1.2821,-0.99479 1.1512,-1.59374 -0.13323,-0.60959 0.45398,-0.82347 1.33384,-0.48584 1.26738,0.48634 1.31348,0.76696 0.23801,1.4487 -1.23563,0.78327 -0.43491,1.30426 1.49048,0.96979 0.45338,-0.0788 0.53932,0.31796 0.19098,0.88158 -0.7962,1.28829 -1.23329,1.29012 -2.02539,0.008 z m 20.51008,-1.37369 c 0,-1.48101 8.57016,-13.61001 9.61662,-13.61001 0.34142,0 -0.55765,1.54498 -1.99793,3.43328 -2.92073,3.82927 -3.27852,5.0339 -1.26574,4.26152 0.74412,-0.28554 2.06381,0.31106 2.93265,1.32579 1.45328,1.6973 1.43382,1.83398 -0.24307,1.70766 -1.19338,-0.0899 -1.62953,-0.67096 -1.2631,-1.68278 0.41797,-1.15411 -6e-4,-1.0532 -1.6529,0.39846 -2.19133,1.92525 -2.20657,1.92525 -1.58586,0 0.52149,-1.61749 0.26948,-1.53842 -1.50071,0.47088 -1.1701,1.32814 -1.89689,3.01564 -1.61509,3.75 0.2818,0.73435 0.0765,1.33519 -0.45625,1.33519 -0.53274,0 -0.96862,-0.6255 -0.96862,-1.38999 z m 26.63837,-0.11001 c -0.31658,-0.825 -0.18787,-1.5 0.28603,-1.5 0.47389,0 1.12064,0.675 1.43723,1.5 0.31658,0.825 0.18787,1.5 -0.28603,1.5 -0.47389,0 -1.12064,-0.675 -1.43723,-1.5 z m -36.63837,-0.5 c -2.32726,-0.74532 -2.34861,-0.80753 -0.30902,-0.90032 1.20504,-0.0548 2.4691,0.35032 2.80902,0.90032 0.33992,0.55 0.47898,0.95514 0.30902,0.90032 -0.16996,-0.0548 -1.43402,-0.45997 -2.80902,-0.90032 z m -6.5,-3 c 0.2405,-1.24884 0.68657,-2.5199 0.99125,-2.82458 0.30469,-0.30469 0.40539,0.4196 0.2238,1.60953 -0.1816,1.18993 -0.62766,2.461 -0.99125,2.82459 -0.3636,0.36359 -0.4643,-0.3607 -0.2238,-1.60954 z m -22.42105,-3.58333 c 0.048,-1.16495 0.28494,-1.4019 0.60416,-0.60417 0.28887,0.72187 0.25335,1.58438 -0.0789,1.91667 -0.33229,0.33229 -0.56864,-0.25834 -0.52522,-1.3125 z m 49.46376,-2.34757 c -0.31644,-0.512 -0.0485,-1.25653 0.59549,-1.65451 0.69784,-0.43129 0.9039,-0.29172 0.51008,0.34549 -0.36341,0.58801 -0.0954,1.29701 0.59549,1.57556 0.89914,0.3625 0.91769,0.52891 0.0652,0.58541 -0.65504,0.0434 -1.44988,-0.33996 -1.76631,-0.85195 z m -44.11571,-2.54763 c -2.07588,-1.5705 -2.02255,-1.6587 1.21371,-2.00732 1.30296,-0.14035 2.06436,0.28961 1.94561,1.09868 -0.32385,2.20655 -1.13528,2.43992 -3.15932,0.90864 z m 2.073,-0.52147 c -0.33992,-0.55 -1.15398,-0.99311 -1.80902,-0.98469 -0.71561,0.009 -0.59227,0.40223 0.30902,0.98469 1.92112,1.24153 2.2673,1.24153 1.5,0 z m 4.94113,0.55517 c 2.15853,-1.72934 5.55887,-2.08813 5.55887,-0.58655 0,0.53273 -0.63984,0.72308 -1.42186,0.42299 -0.78202,-0.30009 -2.46952,-0.0361 -3.75,0.58655 -2.22067,1.07991 -2.23853,1.06038 -0.38701,-0.42299 z m 40.58783,0.48389 c -0.80907,-0.51167 -1.2107,-1.19066 -0.8925,-1.50885 0.3182,-0.3182 1.14776,0.10733 1.84348,0.94562 1.4426,1.73822 1.16599,1.90204 -0.95098,0.56323 z m 1.97104,-2.09808 c 0,-0.58246 0.45,-0.7809 1,-0.44098 0.55,0.33992 1,0.81648 1,1.05902 0,0.24254 -0.45,0.44098 -1,0.44098 -0.55,0 -1,-0.47656 -1,-1.05902 z m -5.44367,-0.84983 c -0.30893,-0.49987 0.84602,-2.09336 2.56656,-3.5411 1.72053,-1.44773 2.85064,-2.90985 2.51135,-3.24914 -0.78321,-0.78322 1.26038,-3.30091 2.67933,-3.30091 0.58778,0 0.31608,0.5625 -0.60378,1.25 -1.11396,0.83257 -1.37848,1.71606 -0.79212,2.64562 0.68056,1.07887 1.23467,0.71047 2.44146,-1.62321 0.85861,-1.66036 1.35405,-3.22589 1.10099,-3.47896 -0.25307,-0.25306 0.21749,-0.46012 1.04569,-0.46012 1.32249,0 1.31434,0.29221 -0.0669,2.40026 -1.31175,2.002 -1.3542,2.66989 -0.2558,4.02529 1.10714,1.36619 1.09072,1.48869 -0.10304,0.76903 -1.07374,-0.64729 -1.25939,-0.43762 -0.76145,0.85998 0.36216,0.94379 0.24769,1.4621 -0.25438,1.1518 -0.50208,-0.31029 -1.11972,0.22883 -1.37255,1.19807 -0.3922,1.50358 -0.47895,1.46868 -0.59099,-0.23776 -0.11101,-1.69076 -0.2937,-1.76807 -1.18151,-0.5 -0.81576,1.16516 -0.90445,0.98367 -0.39729,-0.81306 0.60307,-2.13649 0.49358,-2.21355 -1.43449,-1.00945 -2.38815,1.49143 -2.62592,2.40851 -0.8374,3.22995 0.6875,0.31575 0.18115,0.30504 -1.12523,-0.0238 -1.59801,-0.40226 -2.15133,-0.23563 -1.69098,0.50923 0.37633,0.60892 0.45924,1.10713 0.18424,1.10713 -0.275,0 -0.75276,-0.40898 -1.0617,-0.90885 z m 8.82523,-4.64309 c 0.34149,-0.88992 0.17385,-1.29132 -0.39301,-0.94098 -0.5437,0.33602 -0.98855,1.0344 -0.98855,1.55194 0,1.43843 0.71677,1.12146 1.38156,-0.61096 z m -39.17099,3.1528 c 0.70919,-0.76953 1.47303,-1.22343 1.69742,-1.00868 0.2244,0.21476 0.9206,0.0569 1.54713,-0.35086 0.62653,-0.40772 0.28058,0.0462 -0.76877,1.00868 -2.26307,2.07576 -4.33618,2.36955 -2.47578,0.35086 z m 9.37288,-4.24399 c -0.9187,-2.39409 -0.20261,-2.57794 1.21288,-0.31139 0.67134,1.07499 0.81495,1.95452 0.31913,1.95452 -0.49581,0 -1.18522,-0.73941 -1.53201,-1.64313 z m -5.58345,-0.41589 c 0,-0.58246 0.45,-0.7809 1,-0.44098 0.55,0.33992 1,0.81648 1,1.05902 0,0.24254 -0.45,0.44098 -1,0.44098 -0.55,0 -1,-0.47656 -1,-1.05902 z m 7.63016,-1.73037 c -0.97737,-1.58143 -2.60127,-6.21061 -2.17865,-6.21061 0.65022,0 3.59572,6.2861 3.15296,6.72886 -0.22231,0.22231 -0.66075,-0.0109 -0.97431,-0.51825 z m 31.97285,-1.04394 c -0.28327,-0.45834 0.12038,-0.83334 0.89699,-0.83334 0.77661,0 1.18026,0.375 0.89699,0.83334 -0.28326,0.45833 -0.68691,0.83333 -0.89699,0.83333 -0.21008,0 -0.61373,-0.375 -0.89699,-0.83333 z m -55.9738,-2.37574 c 0.38374,-0.6209 0.75965,-2.28863 0.83537,-3.70607 0.0933,-1.74556 0.76653,-2.65633 2.08654,-2.82252 1.9164,-0.24127 1.91665,-0.23171 0.0153,0.57365 -1.39282,0.58994 -1.589,1.03199 -0.70145,1.58054 0.96991,0.59943 0.95745,1.09256 -0.0585,2.31674 -1.11961,1.34905 -0.99347,1.46088 0.95144,0.84359 3.3942,-1.07728 2.68528,0.073 -0.79209,1.28523 -2.23334,0.77855 -2.85008,0.75977 -2.33654,-0.0712 z m 58.77646,-4.12272 c 0.32688,-1.00748 0.59433,-2.19684 0.59433,-2.64301 0,-0.44617 0.57506,-1.03189 1.27792,-1.30161 0.83078,-0.3188 1.24152,0.34102 1.1739,1.88578 -0.11214,2.56156 -1.44178,4.65264 -1.46713,2.3073 -0.0127,-1.17205 -0.20163,-1.15766 -1.09434,0.0833 -0.89739,1.24751 -0.97897,1.19167 -0.48468,-0.33179 z m -60.90567,-0.66821 c -0.33992,-0.55 -0.14148,-1 0.44098,-1 0.58246,0 1.05902,0.45 1.05902,1 0,0.55 -0.19844,1 -0.44098,1 -0.24254,0 -0.7191,-0.45 -1.05902,-1 z m 19.5,0.60699 c 0,-0.21616 0.69837,-0.661 1.55194,-0.98855 0.88992,-0.34149 1.29132,-0.17385 0.94098,0.39301 -0.58726,0.95021 -2.49292,1.40545 -2.49292,0.59554 z m -8.1875,-1.2901 c 0.72187,-0.28887 1.58438,-0.25335 1.91667,0.0789 0.33229,0.33229 -0.25834,0.56864 -1.3125,0.52522 -1.16495,-0.048 -1.4019,-0.28494 -0.60417,-0.60416 z m 25.85128,-88.06689 c -0.24984,-0.4125 1.8611,-0.8111 4.69098,-0.88577 4.17065,-0.11005 4.57699,0.01 2.14524,0.63169 -4.13715,1.05835 -6.3004,1.13876 -6.83622,0.25408 z m -4.16378,-1.25 c 0.33992,-0.55 1.06803,-1 1.61803,-1 0.55,0 0.72189,0.45 0.38197,1 -0.33992,0.55 -1.06803,1 -1.61803,1 -0.55,0 -0.72189,-0.45 -0.38197,-1 z m -2.17589,-1.36134 c 0.48182,-1.2838 0.3072,-1.71124 -0.56277,-1.37757 -0.79451,0.30473 -1.31955,-0.472 -1.41863,-2.09868 -0.12791,-2.10017 0.0181,-2.26905 0.78186,-0.9043 0.51653,0.92299 1.62825,2.06381 2.47048,2.53514 1.34835,0.75458 1.32217,1.02723 -0.21909,2.28186 -1.56634,1.27505 -1.67696,1.22915 -1.05185,-0.43645 z m 14.17589,-0.63866 c 0.33992,-0.55 -0.15852,-1 -1.10765,-1 -0.94913,0 -1.4596,-0.26609 -1.13438,-0.59131 0.92635,-0.92634 4.83966,0.62433 4.19753,1.66331 -0.31544,0.5104 -1.02353,0.928 -1.57353,0.928 -0.55,0 -0.72189,-0.45 -0.38197,-1 z m -5,-3 c 0.33992,-0.55 0.81648,-1 1.05902,-1 0.24254,0 0.44098,0.45 0.44098,1 0,0.55 -0.47656,1 -1.05902,1 -0.58246,0 -0.7809,-0.45 -0.44098,-1 z m 4.51261,0.029 c -1.16897,-0.73909 -1.0084,-0.90434 0.75,-0.77188 1.23056,0.0927 2.23739,0.52278 2.23739,0.95573 0,1.0435 -1.159,0.97217 -2.98739,-0.18385 z m 8.47898,-0.0426 c -0.34638,-0.56046 -1.11822,-0.71714 -1.7152,-0.34819 -0.67501,0.41718 -0.79526,0.20135 -0.31803,-0.57082 0.51614,-0.83514 1.09771,-0.91131 1.77636,-0.23266 1.34355,1.34355 3.76528,0.33753 3.76528,-1.56415 0,-1.14404 -0.32444,-1.24619 -1.32379,-0.41681 -0.9667,0.80229 -1.64108,0.78137 -2.5,-0.0776 -1.60122,-1.60122 -1.47804,-2.44641 0.46523,-3.19211 1.33213,-0.51119 1.4172,-0.35969 0.45145,0.80398 -0.81736,0.98485 -0.85944,1.63817 -0.13439,2.08627 0.5806,0.35883 1.3246,-0.0485 1.65335,-0.90522 0.77011,-2.00688 2.38815,-1.02128 2.38815,1.4547 0,2.2293 -3.52856,4.54799 -4.50841,2.96256 z m -29.10991,-2.17783 c -0.29169,-0.47196 -0.15939,-0.79367 0.29399,-0.71492 1.90223,0.33044 3.32433,-0.16265 3.32433,-1.15267 0,-0.58246 -0.45341,-0.77879 -1.00759,-0.43629 -0.58277,0.36017 -0.5151,-0.45817 0.16052,-1.94098 0.64245,-1.41004 1.59835,-2.56371 2.12422,-2.56371 0.52586,0 0.70101,-1.0125 0.38922,-2.25 -0.54396,-2.15895 -0.5089,-2.17239 0.86631,-0.3322 1.27492,1.706 1.21421,2.07118 -0.54974,3.3067 -1.93135,1.35277 -2.90617,3.96412 -1.05204,2.81821 0.512,-0.31644 1.25653,-0.0485 1.65451,0.59549 0.43475,0.70343 0.29148,0.90375 -0.35891,0.50179 -0.59538,-0.36797 -1.34643,0.1625 -1.66899,1.17882 -0.60224,1.89749 -3.2299,2.52029 -4.17583,0.98975 z m 6.61832,0.29842 c 0,-1.75308 2.8773,-1.95805 4.17689,-0.29755 1.189,1.51921 1.14574,1.55145 -0.42689,0.31812 -1.14545,-0.89833 -1.75,-0.98469 -1.75,-0.25 0,0.61734 -0.45,1.12244 -1,1.12244 -0.55,0 -1,-0.40186 -1,-0.89301 z m -8.5,-6.10699 c -0.33992,-0.55 -0.14148,-1 0.44098,-1 0.58246,0 1.05902,0.45 1.05902,1 0,0.55 -0.19844,1 -0.44098,1 -0.24254,0 -0.7191,-0.45 -1.05902,-1 z m 1.16667,-2.66667 c -0.36667,-0.36666 -0.66667,-1.13166 -0.66667,-1.7 0,-0.6266 0.46577,-0.56756 1.18333,0.15 0.65084,0.65084 0.95084,1.41584 0.66667,1.7 -0.28417,0.28417 -0.81667,0.21667 -1.18333,-0.15 z m 8.79221,-0.39986 c -0.36253,-0.58659 -0.44468,-1.281 -0.18255,-1.54313 0.26212,-0.26213 0.74306,0.21781 1.06875,1.06653 0.67618,1.76211 0.0999,2.07206 -0.8862,0.4766 z m 3,-1 c -0.36253,-0.58659 -0.38909,-1.33659 -0.059,-1.66667 0.33008,-0.33007 0.60014,-0.0486 0.60014,0.62555 0,0.67413 0.51953,0.9046 1.15451,0.51216 0.7153,-0.44208 0.88306,-0.27432 0.44098,0.44098 -0.88413,1.43055 -1.29636,1.44753 -2.13661,0.088 z m 10.54112,-1.73542 c 0,-0.62901 -0.7804,-0.88424 -1.75,-0.57233 -1.46272,0.47053 -1.50513,0.39013 -0.25836,-0.48975 1.56428,-1.10395 3.96136,0.24436 2.69169,1.51403 -0.37583,0.37583 -0.68333,0.17246 -0.68333,-0.45195 z m -17.25,-0.88738 c -1.15909,-0.3029 -1.71083,-1.36113 -1.634,-3.13399 0.0897,-2.06983 0.22951,-2.2289 0.61667,-0.70161 0.27537,1.08628 1.23567,2.53447 2.134,3.21819 1.72323,1.31155 1.66427,1.34415 -1.11667,0.61741 z m -7.18571,-2.6038 c 0.37553,-0.98622 0.93469,-1.54122 1.24258,-1.23333 0.30789,0.30789 6.4e-4,1.11479 -0.68278,1.79313 -0.98762,0.98026 -1.10248,0.8654 -0.5598,-0.5598 z m 21.43571,-0.0902 c 0,-0.21085 0.90062,-0.61888 2.00138,-0.90674 1.10076,-0.28785 1.7492,-0.11534 1.44098,0.38337 -0.53825,0.87091 -3.44236,1.31244 -3.44236,0.52337 z m 6.15789,-2.61663 c 0,-1.375 0.22698,-1.9375 0.50439,-1.25 0.27741,0.6875 0.27741,1.8125 0,2.5 -0.27741,0.6875 -0.50439,0.125 -0.50439,-1.25 z m 2.59211,1.33772 c 0.6875,-0.27741 1.8125,-0.27741 2.5,0 0.6875,0.27741 0.125,0.50439 -1.25,0.50439 -1.375,0 -1.9375,-0.22698 -1.25,-0.50439 z m -26.75,-1.12527 c 0,-0.42238 0.9,-1.53857 2,-2.48042 1.1,-0.94185 2,-1.36687 2,-0.94448 0,0.42238 -0.9,1.53857 -2,2.48042 -1.1,0.94185 -2,1.36687 -2,0.94448 z m 5.06339,-1.96245 c -0.0349,-1.2375 0.49911,-2.25689 1.18661,-2.26531 0.83083,-0.0102 0.747,-0.33548 -0.25,-0.97008 -1.17439,-0.7475 -0.777,-1.10043 1.83066,-1.62581 2.01007,-0.40499 2.85985,-0.96204 2.14324,-1.40493 -0.86656,-0.53557 -0.88395,-0.92143 -0.0643,-1.42797 0.61769,-0.38175 0.8212,-1.18253 0.45225,-1.77951 -0.39096,-0.6326 -0.2074,-0.799 0.44002,-0.39887 0.61096,0.37759 0.87725,1.29522 0.59177,2.03918 -0.74308,1.93643 7.68893,1.5631 9.41158,-0.4167 1.10175,-1.26622 1.14399,-1.1657 0.27101,0.64499 -0.78637,1.63106 -0.67979,2.4391 0.44483,3.37245 0.81345,0.6751 1.46531,1.73485 1.44858,2.355 -0.0167,0.62016 -0.49438,0.3306 -1.06146,-0.64347 -0.56708,-0.97407 -1.47311,-1.49783 -2.0134,-1.16391 -0.54028,0.33391 -1.52513,0.18915 -2.18853,-0.32171 -0.66341,-0.51086 -2.5562,-0.83263 -4.2062,-0.71504 -1.65,0.11759 -3.9,0.27871 -5,0.35805 -1.66835,0.12034 -1.75126,0.30501 -0.5,1.11364 1.05013,0.67865 1.11544,0.97397 0.21778,0.98469 -0.70523,0.008 -1.6892,1.02781 -2.18662,2.26531 l -0.90439,2.25 -0.0634,-2.25 z m 14.43661,-5.25 c -0.33992,-0.55 -1.15398,-0.99311 -1.80902,-0.98469 -0.71561,0.009 -0.59227,0.40223 0.30902,0.98469 1.92112,1.24153 2.2673,1.24153 1.5,0 z m 2,6 c -0.33992,-0.55 -0.14148,-1 0.44098,-1 0.58246,0 1.05902,0.45 1.05902,1 0,0.55 -0.19844,1 -0.44098,1 -0.24254,0 -0.7191,-0.45 -1.05902,-1 z m 5.5892,-1.16667 c 0.53964,-1.00833 1.09391,-1.83333 1.2317,-1.83333 0.13779,0 0.25053,0.825 0.25053,1.83333 0,1.00834 -0.55427,1.83334 -1.2317,1.83334 -0.8845,0 -0.95512,-0.5168 -0.25053,-1.83334 z m -27.65468,-1.93928 c -0.45646,-0.73857 -0.32152,-0.94225 0.34951,-0.52753 0.60118,0.37155 1.55702,-0.12142 2.1241,-1.09549 0.56708,-0.97407 1.04474,-1.26363 1.06146,-0.64347 0.0519,1.92553 -2.66802,3.66941 -3.53507,2.26649 z m 26.5262,-2.44138 c -0.9207,-1.10937 -1.48607,-1.22068 -1.99745,-0.39324 -0.51594,0.8348 -0.90251,0.8479 -1.39729,0.0473 -0.37621,-0.60869 -0.1809,-1.10673 0.43402,-1.10673 0.61492,0 0.79391,-0.5625 0.39777,-1.25 -0.39615,-0.6875 0.47729,-0.15906 1.94098,1.17431 1.46369,1.33338 2.66125,2.57088 2.66125,2.75 0,0.73315 -0.82921,0.2364 -2.03928,-1.22164 z m -19.22739,-3.57676 c 0.67834,-0.68342 1.48524,-0.99067 1.79313,-0.68278 0.30789,0.30789 -0.24711,0.86705 -1.23333,1.24258 -1.4252,0.54268 -1.54006,0.42782 -0.5598,-0.5598 z"
       id="path3744"
       inkscape:connector-curvature="0" />
    <path
       style="fill:#ffffff"
       d="m 172.11881,370.31065 c -4.95,-2.68613 -9.45,-5.06179 -10,-5.27924 -1.21872,-0.48185 1.20564,-5.26607 28.76514,-56.7649 11.95417,-22.33807 21.73486,-41.3646 21.73486,-42.28117 0,-1.53503 -5.75546,-23.58271 -33.13728,-126.94034 -5.51302,-20.8099 -9.86267,-37.99719 -9.66588,-38.19398 0.54923,-0.54923 23.0357,-6.572737 23.33906,-6.251896 0.33775,0.357208 9.2973,34.054736 33.57608,126.282066 10.79956,41.0241 9.72625,37.5 11.42109,37.5 1.22768,0 66.23548,-16.88794 84.94683,-22.06777 3.83895,-1.06273 7.70282,-1.93223 8.58638,-1.93223 1.21413,0 2.30977,2.79663 4.48606,11.45071 1.58376,6.29789 2.66989,11.62027 2.41362,11.82752 -0.25628,0.20724 -20.71596,5.65614 -45.46596,12.10865 -24.75,6.45252 -47.025,12.35532 -49.5,13.11733 -2.475,0.76201 -6.36697,1.86538 -8.64882,2.45193 l -4.14883,1.06646 -16.9977,31.7387 c -9.34874,17.45629 -20.0812,37.4762 -23.84991,44.4887 -3.76871,7.0125 -7.30278,12.708 -7.85347,12.65666 -0.5507,-0.0513 -5.05127,-2.29108 -10.00127,-4.9772 z"
       id="path3742"
       inkscape:connector-curvature="0" />
  </g>
</svg>
